<svg width="150" height="36" viewBox="0 0 150 36" fill="none" xmlns="http://www.w3.org/2000/svg">
<g clip-path="url(#clip0_144_471)">
<path d="M12.5107 15.3039C13.1004 16.0124 13.3967 17.069 13.3967 18.4818C13.3967 19.3816 13.2642 20.1667 12.9993 20.8373C12.7367 21.5085 12.3672 21.9949 11.8786 22.2994C11.3872 22.6044 10.8186 22.7625 10.24 22.755C9.34178 22.755 8.60498 22.4097 8.04036 21.7206C7.47574 21.0314 7.18948 19.9067 7.18948 18.3414C7.18948 16.9988 7.49295 15.9806 8.0999 15.2867C8.70757 14.5925 9.45299 14.2443 10.324 14.2443C11.1949 14.2443 11.9188 14.5997 12.5107 15.3039ZM7.36597 34.0804V25.9917C7.90117 26.6364 8.36105 27.1006 8.73914 27.3915C9.11723 27.6824 9.61226 27.9266 10.212 28.1201C10.8118 28.3135 11.5321 28.4066 12.3643 28.4066C14.7362 28.4066 16.7287 27.5255 18.342 25.7631C19.9553 24.0008 20.7622 21.6026 20.7626 18.5684C20.7626 16.7245 20.4345 15.0464 19.7783 13.5344C19.1221 12.0223 18.1502 10.8644 16.8627 10.0606C15.5799 9.25539 14.1493 8.85278 12.571 8.85278C11.1461 8.85278 9.89349 9.1637 8.82092 9.78409C7.74836 10.4045 7.00797 11.1875 6.60907 12.1224V9.39151H0.00292969V34.0754L7.36597 34.0804Z" fill="white"/>
<path d="M23.3193 27.8121V9.39661H30.6817V27.8121H23.3193Z" fill="white"/>
<path d="M23.3193 0.77124H30.6817V8.29332H23.3193V0.77124Z" fill="white"/>
<path d="M54.0561 20.6353C53.9045 21.7658 53.6711 22.6849 53.3559 23.3927C53.053 24.0774 52.6379 24.7069 52.1277 25.2553C51.5884 25.8228 50.9792 26.3196 50.3147 26.7339C49.5576 27.206 48.7403 27.574 47.8847 27.8279C46.6823 28.1913 45.3615 28.3726 43.9224 28.3716C40.5681 28.3716 37.9471 27.4701 36.0593 25.6672C34.1714 23.8643 33.2275 21.527 33.2275 18.6552C33.2275 15.7491 34.1746 13.3886 36.0686 11.5737C37.9626 9.75887 40.5805 8.85144 43.9224 8.85144C46.1799 8.85144 48.0505 9.2242 49.5341 9.96972C51.0178 10.7152 52.1281 11.7182 52.8652 12.9786C53.3789 13.8425 53.7349 14.9684 53.9334 16.3563H46.5015C46.4197 15.5277 46.1421 14.892 45.6686 14.4493C45.1951 14.0066 44.5783 13.7843 43.8183 13.7824C42.8703 13.7824 42.102 14.1405 41.5132 14.8569C40.9244 15.5733 40.6293 16.7783 40.6279 18.4718C40.6279 20.3048 40.9149 21.5705 41.4888 22.2687C42.0628 22.9669 42.8519 23.3175 43.8563 23.3203C44.6505 23.3203 45.2912 23.1054 45.7669 22.6656C46.2425 22.2257 46.5453 21.548 46.6608 20.6246L54.0561 20.6353Z" fill="white"/>
<path d="M65.0822 22.9656C64.5721 22.6633 64.1761 22.1633 63.8884 21.4684C63.6007 20.7735 63.4579 19.8558 63.4579 18.7103C63.4579 16.926 63.7583 15.6516 64.359 14.8869C64.9617 14.1233 65.715 13.7407 66.6304 13.7407C67.5066 13.7407 68.1956 14.0671 68.6974 14.72C69.3861 15.595 69.7305 16.8735 69.7305 18.5556C69.7305 19.7104 69.5937 20.6613 69.3201 21.4082C69.0453 22.1568 68.6665 22.6791 68.1894 22.9757C67.7329 23.2658 67.2031 23.4203 66.662 23.4213C66.1034 23.4179 65.5566 23.2602 65.0822 22.9656ZM58.8577 11.55C57.0048 13.3491 56.0786 15.7421 56.0791 18.7289C56.0791 20.9125 56.5789 22.7512 57.5785 24.2451C58.5782 25.739 59.8935 26.8064 61.5244 27.4474C63.1338 28.0848 64.8496 28.4115 66.5809 28.4102C68.6959 28.4102 70.5852 27.9818 72.2487 27.125C73.9122 26.2682 75.139 25.1151 75.9291 23.6656C76.7197 22.2204 77.115 20.5579 77.115 18.6781C77.115 15.7022 76.1917 13.3211 74.345 11.5349C72.4983 9.74874 69.9041 8.85469 66.5623 8.85278C63.2778 8.85278 60.7097 9.75113 58.8577 11.5478V11.55Z" fill="white"/>
<path d="M84.8689 18.8365C84.8689 17.5513 85.2721 16.2087 86.0735 14.819C86.8749 13.4292 87.9288 12.7278 89.2403 12.7278C89.919 12.7278 90.4271 12.9468 90.7648 13.3847C91.1027 13.826 91.2771 14.4307 91.2771 15.2051C91.2909 16.769 90.8619 18.305 90.0395 19.636C89.214 20.9766 88.2748 21.6452 87.2221 21.6418C86.2521 21.6418 85.5792 21.2851 85.2033 20.5716C84.9808 20.1403 84.8689 19.5629 84.8689 18.8365ZM85.5075 34.4817C84.4772 34.4817 83.6141 34.3305 82.9111 34.0275C81.569 33.4386 80.8975 32.3674 80.8965 30.8138C80.8965 29.7817 81.3327 28.8595 82.2051 28.0471C83.0775 27.2347 83.6644 26.8287 83.9657 26.8292C84.1422 26.8292 84.7979 27.0441 85.9415 27.4854C87.0851 27.9267 87.8944 28.262 88.3743 28.4962C88.9483 28.79 89.3651 29.0636 89.6191 29.3208C89.8542 29.5518 90.0396 29.8284 90.1637 30.1335C90.2878 30.4387 90.3481 30.766 90.3408 31.0953C90.3408 32.0199 89.8829 32.8165 88.9669 33.4852C88.051 34.1538 86.8978 34.486 85.5075 34.4817ZM78.9336 31.2579C78.9336 32.3664 79.4597 33.3063 80.512 34.0776C81.5642 34.8489 82.9897 35.2329 84.7886 35.2296C87.3843 35.2296 89.3247 34.7018 90.6099 33.6464C91.895 32.5909 92.5371 31.363 92.5362 29.9627C92.5362 28.0948 91.2567 26.6771 88.6979 25.7095C86.1237 24.7543 84.8371 24.0792 84.8381 23.6843C84.8381 23.4156 84.9959 23.1112 85.3123 22.7752C85.6165 22.437 85.854 22.2672 86.0297 22.2672C86.2507 22.3167 86.4372 22.3475 86.5929 22.3668C86.7549 22.3845 86.9178 22.3932 87.0808 22.3926C88.7782 22.3926 90.3621 21.8501 91.8324 20.765C93.3026 19.6799 94.0366 18.1929 94.0342 16.304C94.0406 16.006 94.0226 15.7079 93.9804 15.4128C93.9395 15.1773 93.8868 14.9439 93.8225 14.7136H95.6211V13.288H93.2392C93.1123 13.0731 92.6789 12.7987 91.9479 12.4721C91.2168 12.1454 90.3114 11.9821 89.2503 11.9821C87.2171 11.9821 85.5115 12.5652 84.1336 13.7315C82.7556 14.8978 82.0666 16.3604 82.0666 18.1194C82.0666 19.215 82.3916 20.1069 83.0416 20.7951C83.5927 21.3176 84.2451 21.7218 84.9586 21.9828C84.1192 22.556 83.5142 23.0166 83.1435 23.3648C82.4749 23.9851 82.1427 24.5317 82.1427 25.0124C82.1427 25.3513 82.2367 25.6207 82.4253 25.8248C82.6378 26.0505 82.879 26.2472 83.1428 26.4101C81.6792 27.1924 80.6117 27.9776 79.9401 28.7656C79.2686 29.5536 78.9331 30.3842 78.9336 31.2572V31.2579Z" fill="white"/>
<path d="M103.056 11.9985C103.095 12.074 103.115 12.1578 103.114 12.2428C103.102 12.3161 103.082 12.3881 103.056 12.4577L101.284 19.2993L101.693 18.4811C102.504 16.8856 103.491 15.3849 104.634 14.0066C105.754 12.6555 106.822 11.9797 107.839 11.9792C108.385 11.9792 108.807 12.1593 109.104 12.5194C109.395 12.8664 109.554 13.3054 109.551 13.758C109.551 14.2831 109.399 14.7172 109.106 15.0575C108.814 15.3978 108.405 15.5747 107.887 15.5747C107.528 15.5747 107.257 15.5031 107.073 15.3649C106.895 15.2349 106.748 15.0676 106.642 14.8748L106.427 14.493C106.386 14.4264 106.33 14.3697 106.265 14.3268C106.193 14.285 106.111 14.2644 106.029 14.2673C105.57 14.2673 104.906 14.8992 104.046 16.1658C103.161 17.4702 102.385 18.8451 101.726 20.2764C101.316 21.1719 100.858 22.357 100.354 23.8318C100.038 24.7646 99.6136 26.0892 99.0803 27.8057H96.3691L99.3006 17.254C99.4577 16.6522 99.5947 16.1156 99.6916 15.6407C99.7792 15.2579 99.8294 14.8675 99.8415 14.4751C99.8415 14.1291 99.7547 13.8604 99.5804 13.6749C99.406 13.4893 99.099 13.3969 98.6635 13.3969C98.4877 13.3994 98.3121 13.4115 98.1376 13.4335C97.9274 13.4564 97.6734 13.485 97.38 13.5194V12.9592L98.091 12.8159C99.0093 12.6249 100.014 12.4222 101.104 12.2077C102.195 11.9933 102.769 11.8858 102.826 11.8853C102.871 11.8809 102.917 11.8891 102.957 11.9091C102.998 11.9291 103.032 11.9601 103.056 11.9985Z" fill="white"/>
<path d="M120.357 15.1857C120.357 17.2695 119.574 19.6039 118.009 22.1891C116.382 25.0308 114.69 26.4521 112.933 26.4531C112.653 26.4585 112.375 26.4044 112.117 26.2942C111.86 26.184 111.629 26.0203 111.44 25.8141C111.039 25.3842 110.838 24.7065 110.838 23.7666C110.838 21.9088 111.563 19.6916 113.012 17.115C114.658 14.1916 116.441 12.7292 118.361 12.7278C118.624 12.7239 118.885 12.775 119.127 12.8777C119.37 12.9805 119.588 13.1327 119.768 13.3246C120.162 13.7243 120.357 14.3418 120.357 15.1857ZM118.183 11.9813C115.729 11.9813 113.362 13.3616 111.08 16.122C108.866 18.7775 107.759 21.3276 107.758 23.7724C107.758 25.1937 108.142 26.2921 108.911 27.0678C109.68 27.8443 110.538 28.229 111.478 28.229C112.074 28.2226 112.665 28.1168 113.226 27.916C114.006 27.6017 114.821 27.0668 115.671 26.3112C116.35 25.7314 116.962 25.079 117.498 24.3655C117.995 23.6971 118.347 23.1899 118.557 22.8389C118.406 23.3733 118.248 24.0295 118.09 24.8097C117.932 25.5898 117.856 26.1873 117.856 26.6007C117.856 27.0498 117.973 27.4295 118.215 27.7297C118.458 28.0299 118.798 28.1789 119.243 28.1789C119.931 28.1789 120.647 27.9052 121.401 27.3514C122.156 26.7977 123.155 25.7553 124.402 24.2122L123.983 23.839L122.842 24.953C122.672 25.1163 122.524 25.2517 122.403 25.3642C122.282 25.4767 122.17 25.5691 122.066 25.6507L121.756 25.8929C121.608 26.0095 121.45 26.1148 121.286 26.2081C121.18 26.2711 121.06 26.3066 120.936 26.3112C120.818 26.3147 120.702 26.2747 120.611 26.1988C120.524 26.1236 120.482 26.0061 120.482 25.8449C120.482 25.5922 120.697 24.5771 121.127 22.7995C121.391 21.8152 121.712 20.636 122.091 19.2777L123.827 13.0366C123.879 12.8768 123.914 12.75 123.94 12.6648C123.967 12.5795 124.006 12.4577 124.054 12.3066C124.077 12.2005 124.084 12.1303 124.063 12.0873C124.041 12.0444 123.982 12.0286 123.871 12.0286L121.837 12.2478C121.705 12.2607 121.622 12.2901 121.587 12.3395C121.533 12.4331 121.491 12.5332 121.462 12.6375L121.063 13.922L120.977 13.682C120.844 13.3049 120.626 12.9636 120.339 12.6848C119.83 12.2173 119.111 11.9828 118.183 11.9813Z" fill="white"/>
<path d="M138.781 12.3631C139.345 12.7452 139.626 13.379 139.625 14.2644C139.625 14.6584 139.531 15.2093 139.338 15.9121C139.145 16.6149 138.796 17.7504 138.296 19.3157C139.59 17.3356 140.703 15.828 141.635 14.7931C143.323 12.9166 144.814 11.9786 146.11 11.9791C146.661 11.98 147.194 12.178 147.612 12.5372C148.07 12.9092 148.299 13.5062 148.298 14.3282C148.298 14.5837 148.188 15.2046 147.966 16.1908L145.217 25.7431C145.194 25.8192 145.187 25.899 145.196 25.9779C145.204 26.0567 145.229 26.1331 145.268 26.2023C145.353 26.3649 145.508 26.4452 145.737 26.4452C145.936 26.4504 146.132 26.3944 146.299 26.2847C146.522 26.1304 146.73 25.9545 146.919 25.7596C147.154 25.5241 147.348 25.3195 147.499 25.1456C147.642 24.9665 148.073 24.4579 148.779 23.6126L149.317 24.0345L149.138 24.2817C148.287 25.4809 147.433 26.4361 146.576 27.1472C145.72 27.8584 144.873 28.2144 144.035 28.2154C143.696 28.2261 143.362 28.1274 143.082 27.9338C142.681 27.6279 142.483 27.1143 142.483 26.3993C142.484 26.2097 142.499 26.0203 142.526 25.8327C142.558 25.607 142.604 25.3834 142.661 25.1628L145.388 15.344C145.423 15.205 145.449 15.0868 145.465 14.9944C145.484 14.9018 145.494 14.8074 145.494 14.7129C145.494 14.4328 145.418 14.2157 145.269 14.0681C145.197 13.9932 145.109 13.9342 145.013 13.8949C144.916 13.8557 144.812 13.8371 144.708 13.8403C143.91 13.8403 142.98 14.4301 141.92 15.6098C140.902 16.7304 139.974 17.9298 139.146 19.1967C138.434 20.4361 137.932 21.4727 137.639 22.3066C137.347 23.1405 136.814 24.9711 136.04 27.7984H133.324L136.83 15.3462C136.856 15.2408 136.875 15.1391 136.891 15.041C136.91 14.9397 136.92 14.8368 136.92 14.7336C136.92 14.4542 136.856 14.2322 136.731 14.0774C136.606 13.9227 136.396 13.8403 136.111 13.8403C135.352 13.8403 134.416 14.4521 133.303 15.6757C132.191 16.8993 131.28 18.0419 130.57 19.1036C129.872 20.1438 129.207 21.5229 128.566 23.2501C128.201 24.3041 127.716 25.8202 127.11 27.7984H124.393L127.797 15.3791C127.83 15.2487 127.861 15.1248 127.882 15.0044C127.907 14.8809 127.918 14.755 127.917 14.629C127.917 14.1641 127.762 13.8833 127.441 13.7902C127.12 13.697 126.508 13.6648 125.6 13.6992V13.1511C126.778 12.9601 128.689 12.5709 131.334 11.9834L131.473 12.1038L129.483 19.2677C130.803 17.3721 132.052 15.7882 133.23 14.5159C134.849 12.8309 136.278 11.9872 137.516 11.9849C137.967 11.9765 138.409 12.1087 138.781 12.3631Z" fill="white"/>
</g>
<defs>
<clipPath id="clip0_144_471">
<rect width="149.316" height="34.4576" fill="white" transform="translate(0 0.77124)"/>
</clipPath>
</defs>
</svg>
